<svg width="40" height="40" viewBox="0 0 40 40" fill="none" xmlns="http://www.w3.org/2000/svg">
<path d="M4.28585 7.14307C3.52809 7.14307 2.80137 7.44409 2.26555 7.9799C1.72973 8.51572 1.42871 9.24245 1.42871 10.0002V35.7145C1.42871 36.4723 1.72973 37.199 2.26555 37.7348C2.80137 38.2706 3.52809 38.5716 4.28585 38.5716H35.7144C36.4722 38.5716 37.1989 38.2706 37.7347 37.7348C38.2705 37.199 38.5716 36.4723 38.5716 35.7145V10.0002C38.5716 9.24245 38.2705 8.51572 37.7347 7.9799C37.1989 7.44409 36.4722 7.14307 35.7144 7.14307H30.0001" stroke="white" stroke-linecap="round" stroke-linejoin="round"/>
<path d="M1.42871 18.5718H38.5716" stroke="white" stroke-linecap="round" stroke-linejoin="round"/>
<path d="M10 1.42871V12.8573" stroke="white" stroke-linecap="round" stroke-linejoin="round"/>
<path d="M30 1.42871V12.8573" stroke="white" stroke-linecap="round" stroke-linejoin="round"/>
<path d="M10 7.14307H24.2857" stroke="white" stroke-linecap="round" stroke-linejoin="round"/>
</svg>
