<svg width="105" height="84" viewBox="0 0 105 84" fill="none" xmlns="http://www.w3.org/2000/svg">
<rect x="28" y="18" width="46" height="46" rx="23" fill="#EF4B72" fill-opacity="0.64"/>
<rect x="25" y="15" width="52" height="52" rx="26" stroke="#EF4B72" stroke-opacity="0.2" stroke-width="6"/>
<path d="M60.531 36.2806L48.531 48.2806C48.4614 48.3503 48.3787 48.4056 48.2876 48.4433C48.1966 48.4811 48.099 48.5005 48.0004 48.5005C47.9019 48.5005 47.8043 48.4811 47.7132 48.4433C47.6222 48.4056 47.5394 48.3503 47.4698 48.2806L42.2198 43.0306C42.0791 42.8898 42 42.699 42 42.4999C42 42.3009 42.0791 42.11 42.2198 41.9693C42.3605 41.8286 42.5514 41.7495 42.7504 41.7495C42.9494 41.7495 43.1403 41.8286 43.281 41.9693L48.0004 46.6896L59.4698 35.2193C59.6105 35.0786 59.8014 34.9995 60.0004 34.9995C60.1994 34.9995 60.3903 35.0786 60.531 35.2193C60.6718 35.36 60.7508 35.5509 60.7508 35.7499C60.7508 35.949 60.6718 36.1398 60.531 36.2806Z" fill="white"/>
<path d="M100.769 78.2748L97.9167 77.0049L96.6355 79.8826L95.8042 79.5125L97.0854 76.6348L94.2461 75.3707L94.5878 74.6033L97.4271 75.8674L98.7083 72.9898L99.5396 73.3599L98.2584 76.2376L101.11 77.5074L100.769 78.2748Z" fill="white"/>
<path d="M17.7712 15.6332L14.2379 16.1298L14.7389 19.6948L13.7091 19.8395L13.208 16.2745L9.69061 16.7689L9.557 15.8182L13.0744 15.3239L12.5734 11.7589L13.6033 11.6142L14.1043 15.1791L17.6376 14.6826L17.7712 15.6332Z" fill="white"/>
<circle cx="63" cy="15" r="2.5" stroke="white"/>
<circle cx="50.5" cy="40.5" r="40.25" stroke="white" stroke-opacity="0.2" stroke-width="0.5"/>
<circle cx="46" cy="66" r="4.5" stroke="white"/>
<circle cx="83" cy="53" r="4.5" fill="white" stroke="white"/>
<circle cx="3" cy="67" r="2.5" fill="white" stroke="white"/>
</svg>
