<svg width="156" height="28" viewBox="0 0 156 28" fill="none" xmlns="http://www.w3.org/2000/svg">
<path d="M143.782 7.82824C144.008 7.64824 144.112 7.56491 144.092 7.57824C144.745 7.03824 145.258 6.59491 145.632 6.24824C146.012 5.90158 146.332 5.53824 146.592 5.15824C146.852 4.77824 146.982 4.40824 146.982 4.04824C146.982 3.77491 146.918 3.56157 146.792 3.40824C146.665 3.25491 146.475 3.17824 146.222 3.17824C145.968 3.17824 145.768 3.27491 145.622 3.46824C145.482 3.65491 145.412 3.92158 145.412 4.26824H143.762C143.775 3.70158 143.895 3.22824 144.122 2.84824C144.355 2.46824 144.658 2.18824 145.032 2.00824C145.412 1.82824 145.832 1.73824 146.292 1.73824C147.085 1.73824 147.682 1.94157 148.082 2.34824C148.488 2.75491 148.692 3.28491 148.692 3.93824C148.692 4.65158 148.448 5.31491 147.962 5.92824C147.475 6.53491 146.855 7.12824 146.102 7.70824H148.802V9.09824H143.782V7.82824ZM154.694 3.38824H151.574V4.76824C151.708 4.62158 151.894 4.50158 152.134 4.40824C152.374 4.31491 152.634 4.26824 152.914 4.26824C153.414 4.26824 153.828 4.38158 154.154 4.60824C154.488 4.83491 154.731 5.12824 154.884 5.48824C155.038 5.84824 155.114 6.23824 155.114 6.65824C155.114 7.43824 154.894 8.05824 154.454 8.51824C154.014 8.97158 153.394 9.19824 152.594 9.19824C152.061 9.19824 151.598 9.10824 151.204 8.92824C150.811 8.74158 150.508 8.48491 150.294 8.15824C150.081 7.83158 149.964 7.45491 149.944 7.02824H151.614C151.654 7.23491 151.751 7.40824 151.904 7.54824C152.058 7.68158 152.268 7.74824 152.534 7.74824C152.848 7.74824 153.081 7.64824 153.234 7.44824C153.388 7.24824 153.464 6.98158 153.464 6.64824C153.464 6.32158 153.384 6.07158 153.224 5.89824C153.064 5.72491 152.831 5.63824 152.524 5.63824C152.298 5.63824 152.111 5.69491 151.964 5.80824C151.818 5.91491 151.721 6.05824 151.674 6.23824H150.024V1.88824H154.694V3.38824Z" fill="url(#paint0_radial_587_1234)"/>
<path d="M16.5179 5.74824V23.1982H13.0179V15.7732H5.54287V23.1982H2.04287V5.74824H5.54287V12.9232H13.0179V5.74824H16.5179ZM19.0628 16.2232C19.0628 14.8232 19.3378 13.5816 19.8878 12.4982C20.4545 11.4149 21.2128 10.5816 22.1628 9.99824C23.1295 9.41491 24.2045 9.12324 25.3878 9.12324C26.4211 9.12324 27.3211 9.33157 28.0878 9.74824C28.8711 10.1649 29.4961 10.6899 29.9628 11.3232V9.34824H33.4878V23.1982H29.9628V21.1732C29.5128 21.8232 28.8878 22.3649 28.0878 22.7982C27.3045 23.2149 26.3961 23.4232 25.3628 23.4232C24.1961 23.4232 23.1295 23.1232 22.1628 22.5232C21.2128 21.9232 20.4545 21.0816 19.8878 19.9982C19.3378 18.8982 19.0628 17.6399 19.0628 16.2232ZM29.9628 16.2732C29.9628 15.4232 29.7961 14.6982 29.4628 14.0982C29.1295 13.4816 28.6795 13.0149 28.1128 12.6982C27.5461 12.3649 26.9378 12.1982 26.2878 12.1982C25.6378 12.1982 25.0378 12.3566 24.4878 12.6732C23.9378 12.9899 23.4878 13.4566 23.1378 14.0732C22.8045 14.6732 22.6378 15.3899 22.6378 16.2232C22.6378 17.0566 22.8045 17.7899 23.1378 18.4232C23.4878 19.0399 23.9378 19.5149 24.4878 19.8482C25.0545 20.1816 25.6545 20.3482 26.2878 20.3482C26.9378 20.3482 27.5461 20.1899 28.1128 19.8732C28.6795 19.5399 29.1295 19.0732 29.4628 18.4732C29.7961 17.8566 29.9628 17.1232 29.9628 16.2732ZM36.0062 16.2732C36.0062 14.8399 36.2978 13.5899 36.8812 12.5232C37.4645 11.4399 38.2728 10.6066 39.3062 10.0232C40.3395 9.42324 41.5228 9.12324 42.8562 9.12324C44.5728 9.12324 45.9895 9.55657 47.1062 10.4232C48.2395 11.2732 48.9978 12.4732 49.3812 14.0232H45.6062C45.4062 13.4232 45.0645 12.9566 44.5812 12.6232C44.1145 12.2732 43.5312 12.0982 42.8312 12.0982C41.8312 12.0982 41.0395 12.4649 40.4562 13.1982C39.8728 13.9149 39.5812 14.9399 39.5812 16.2732C39.5812 17.5899 39.8728 18.6149 40.4562 19.3482C41.0395 20.0649 41.8312 20.4232 42.8312 20.4232C44.2478 20.4232 45.1728 19.7899 45.6062 18.5232H49.3812C48.9978 20.0232 48.2395 21.2149 47.1062 22.0982C45.9728 22.9816 44.5562 23.4232 42.8562 23.4232C41.5228 23.4232 40.3395 23.1316 39.3062 22.5482C38.2728 21.9482 37.4645 21.1149 36.8812 20.0482C36.2978 18.9649 36.0062 17.7066 36.0062 16.2732ZM60.1452 23.1982L55.4452 17.2982V23.1982H51.9452V4.69824H55.4452V15.2232L60.0952 9.34824H64.6452L58.5452 16.2982L64.6952 23.1982H60.1452ZM77.2448 19.8732H70.2948L69.1448 23.1982H65.4698L71.7448 5.72324H75.8198L82.0948 23.1982H78.3948L77.2448 19.8732ZM76.2948 17.0732L73.7698 9.77324L71.2448 17.0732H76.2948ZM88.5153 12.2232V18.9232C88.5153 19.3899 88.6237 19.7316 88.8403 19.9482C89.0737 20.1482 89.457 20.2482 89.9903 20.2482H91.6153V23.1982H89.4153C86.4653 23.1982 84.9903 21.7649 84.9903 18.8982V12.2232H83.3403V9.34824H84.9903V5.92324H88.5153V9.34824H91.6153V12.2232H88.5153ZM98.2077 12.2232V18.9232C98.2077 19.3899 98.316 19.7316 98.5327 19.9482C98.766 20.1482 99.1494 20.2482 99.6827 20.2482H101.308V23.1982H99.1077C96.1577 23.1982 94.6827 21.7649 94.6827 18.8982V12.2232H93.0327V9.34824H94.6827V5.92324H98.2077V9.34824H101.308V12.2232H98.2077ZM102.925 16.2232C102.925 14.8232 103.2 13.5816 103.75 12.4982C104.317 11.4149 105.075 10.5816 106.025 9.99824C106.992 9.41491 108.067 9.12324 109.25 9.12324C110.283 9.12324 111.183 9.33157 111.95 9.74824C112.733 10.1649 113.358 10.6899 113.825 11.3232V9.34824H117.35V23.1982H113.825V21.1732C113.375 21.8232 112.75 22.3649 111.95 22.7982C111.167 23.2149 110.258 23.4232 109.225 23.4232C108.058 23.4232 106.992 23.1232 106.025 22.5232C105.075 21.9232 104.317 21.0816 103.75 19.9982C103.2 18.8982 102.925 17.6399 102.925 16.2232ZM113.825 16.2732C113.825 15.4232 113.658 14.6982 113.325 14.0982C112.992 13.4816 112.542 13.0149 111.975 12.6982C111.408 12.3649 110.8 12.1982 110.15 12.1982C109.5 12.1982 108.9 12.3566 108.35 12.6732C107.8 12.9899 107.35 13.4566 107 14.0732C106.667 14.6732 106.5 15.3899 106.5 16.2232C106.5 17.0566 106.667 17.7899 107 18.4232C107.35 19.0399 107.8 19.5149 108.35 19.8482C108.917 20.1816 109.517 20.3482 110.15 20.3482C110.8 20.3482 111.408 20.1899 111.975 19.8732C112.542 19.5399 112.992 19.0732 113.325 18.4732C113.658 17.8566 113.825 17.1232 113.825 16.2732ZM119.868 16.2732C119.868 14.8399 120.16 13.5899 120.743 12.5232C121.327 11.4399 122.135 10.6066 123.168 10.0232C124.202 9.42324 125.385 9.12324 126.718 9.12324C128.435 9.12324 129.852 9.55657 130.968 10.4232C132.102 11.2732 132.86 12.4732 133.243 14.0232H129.468C129.268 13.4232 128.927 12.9566 128.443 12.6232C127.977 12.2732 127.393 12.0982 126.693 12.0982C125.693 12.0982 124.902 12.4649 124.318 13.1982C123.735 13.9149 123.443 14.9399 123.443 16.2732C123.443 17.5899 123.735 18.6149 124.318 19.3482C124.902 20.0649 125.693 20.4232 126.693 20.4232C128.11 20.4232 129.035 19.7899 129.468 18.5232H133.243C132.86 20.0232 132.102 21.2149 130.968 22.0982C129.835 22.9816 128.418 23.4232 126.718 23.4232C125.385 23.4232 124.202 23.1316 123.168 22.5482C122.135 21.9482 121.327 21.1149 120.743 20.0482C120.16 18.9649 119.868 17.7066 119.868 16.2732ZM144.008 23.1982L139.308 17.2982V23.1982H135.808V4.69824H139.308V15.2232L143.958 9.34824H148.508L142.408 16.2982L148.558 23.1982H144.008Z" fill="url(#paint1_radial_587_1234)"/>
<defs>
<radialGradient id="paint0_radial_587_1234" cx="0" cy="0" r="1" gradientUnits="userSpaceOnUse" gradientTransform="translate(149.5 5.19824) rotate(90) scale(5 6.5)">
<stop stop-color="#2F67B4"/>
<stop offset="1" stop-color="white"/>
</radialGradient>
<radialGradient id="paint1_radial_587_1234" cx="0" cy="0" r="1" gradientUnits="userSpaceOnUse" gradientTransform="translate(74.5 14.6982) scale(74.5 74.5)">
<stop stop-color="#0F75BD"/>
<stop offset="1" stop-color="#64BB48"/>
</radialGradient>
</defs>
</svg>
